<?xml version="1.0" encoding="UTF-8" standalone="no"?>
<!-- Created with Inkscape (http://www.inkscape.org/) -->

<svg
   xmlns:dc="http://purl.org/dc/elements/1.1/"
   xmlns:cc="http://creativecommons.org/ns#"
   xmlns:rdf="http://www.w3.org/1999/02/22-rdf-syntax-ns#"
   xmlns:svg="http://www.w3.org/2000/svg"
   xmlns="http://www.w3.org/2000/svg"
   xmlns:sodipodi="http://sodipodi.sourceforge.net/DTD/sodipodi-0.dtd"
   xmlns:inkscape="http://www.inkscape.org/namespaces/inkscape"
   width="96"
   height="96"
   id="svg6517"
   version="1.1"
   inkscape:version="0.91 r13725"
   sodipodi:docname="Director2.svg">
  <defs
     id="defs6519">
    <linearGradient
       id="Background">
      <stop
         id="stop4178"
         offset="0"
         style="stop-color:#b8b8b8;stop-opacity:1" />
      <stop
         id="stop4180"
         offset="1"
         style="stop-color:#c9c9c9;stop-opacity:1" />
    </linearGradient>
    <filter
       style="color-interpolation-filters:sRGB;"
       inkscape:label="Inner Shadow"
       id="filter1121">
      <feFlood
         flood-opacity="0.59999999999999998"
         flood-color="rgb(0,0,0)"
         result="flood"
         id="feFlood1123" />
      <feComposite
         in="flood"
         in2="SourceGraphic"
         operator="out"
         result="composite1"
         id="feComposite1125" />
      <feGaussianBlur
         in="composite1"
         stdDeviation="1"
         result="blur"
         id="feGaussianBlur1127" />
      <feOffset
         dx="0"
         dy="2"
         result="offset"
         id="feOffset1129" />
      <feComposite
         in="offset"
         in2="SourceGraphic"
         operator="atop"
         result="composite2"
         id="feComposite1131" />
    </filter>
    <filter
       style="color-interpolation-filters:sRGB;"
       inkscape:label="Drop Shadow"
       id="filter950">
      <feFlood
         flood-opacity="0.25"
         flood-color="rgb(0,0,0)"
         result="flood"
         id="feFlood952" />
      <feComposite
         in="flood"
         in2="SourceGraphic"
         operator="in"
         result="composite1"
         id="feComposite954" />
      <feGaussianBlur
         in="composite1"
         stdDeviation="1"
         result="blur"
         id="feGaussianBlur956" />
      <feOffset
         dx="0"
         dy="1"
         result="offset"
         id="feOffset958" />
      <feComposite
         in="SourceGraphic"
         in2="offset"
         operator="over"
         result="composite2"
         id="feComposite960" />
    </filter>
    <clipPath
       clipPathUnits="userSpaceOnUse"
       id="clipPath873">
      <g
         transform="matrix(0,-0.66666667,0.66604479,0,-258.25992,677.00001)"
         id="g875"
         inkscape:label="Layer 1"
         style="fill:#ff00ff;fill-opacity:1;stroke:none;display:inline">
        <path
           style="fill:#ff00ff;fill-opacity:1;stroke:none;display:inline"
           d="m 46.702703,898.22775 50.594594,0 C 138.16216,898.22775 144,904.06497 144,944.92583 l 0,50.73846 c 0,40.86071 -5.83784,46.69791 -46.702703,46.69791 l -50.594594,0 C 5.8378378,1042.3622 0,1036.525 0,995.66429 L 0,944.92583 C 0,904.06497 5.8378378,898.22775 46.702703,898.22775 Z"
           id="path877"
           inkscape:connector-curvature="0"
           sodipodi:nodetypes="sssssssss" />
      </g>
    </clipPath>
    <filter
       inkscape:collect="always"
       id="filter891"
       inkscape:label="Badge Shadow">
      <feGaussianBlur
         inkscape:collect="always"
         stdDeviation="0.71999962"
         id="feGaussianBlur893" />
    </filter>
  </defs>
  <sodipodi:namedview
     id="base"
     pagecolor="#ffffff"
     bordercolor="#666666"
     borderopacity="1.0"
     inkscape:pageopacity="0.0"
     inkscape:pageshadow="2"
     inkscape:zoom="4.0745362"
     inkscape:cx="57.131043"
     inkscape:cy="49.018169"
     inkscape:document-units="px"
     inkscape:current-layer="layer3"
     showgrid="true"
     fit-margin-top="0"
     fit-margin-left="0"
     fit-margin-right="0"
     fit-margin-bottom="0"
     inkscape:window-width="1366"
     inkscape:window-height="705"
     inkscape:window-x="-8"
     inkscape:window-y="-8"
     inkscape:window-maximized="1"
     showborder="true"
     showguides="true"
     inkscape:guide-bbox="true"
     inkscape:showpageshadow="false">
    <inkscape:grid
       type="xygrid"
       id="grid821" />
    <sodipodi:guide
       orientation="1,0"
       position="16,48"
       id="guide823" />
    <sodipodi:guide
       orientation="0,1"
       position="64,80"
       id="guide825" />
    <sodipodi:guide
       orientation="1,0"
       position="80,40"
       id="guide827" />
    <sodipodi:guide
       orientation="0,1"
       position="64,16"
       id="guide829" />
  </sodipodi:namedview>
  <metadata
     id="metadata6522">
    <rdf:RDF>
      <cc:Work
         rdf:about="">
        <dc:format>image/svg+xml</dc:format>
        <dc:type
           rdf:resource="http://purl.org/dc/dcmitype/StillImage" />
        <dc:title></dc:title>
      </cc:Work>
    </rdf:RDF>
  </metadata>
  <g
     inkscape:label="BACKGROUND"
     inkscape:groupmode="layer"
     id="layer1"
     transform="translate(268,-635.29076)"
     style="display:inline">
    <path
       style="fill:#029bd6;fill-opacity:0.90980393;stroke:none;display:inline;filter:url(#filter1121)"
       d="m -268,700.15563 0,-33.72973 c 0,-27.24324 3.88785,-31.13513 31.10302,-31.13513 l 33.79408,0 c 27.21507,0 31.1029,3.89189 31.1029,31.13513 l 0,33.72973 c 0,27.24325 -3.88783,31.13514 -31.1029,31.13514 l -33.79408,0 C -264.11215,731.29077 -268,727.39888 -268,700.15563 Z"
       id="path6455"
       inkscape:connector-curvature="0"
       sodipodi:nodetypes="sssssssss" />
  </g>
  <g
     inkscape:groupmode="layer"
     id="layer3"
     inkscape:label="PLACE YOUR PICTOGRAM HERE"
     style="display:inline">
    <rect
       x="20.77989"
       y="42.958199"
       stroke-miterlimit="10"
       width="56.401024"
       height="34.449623"
       id="rect3"
       style="fill:#ffffff;stroke:#ffffff;stroke-width:0.98441201;stroke-miterlimit:10" />
    <rect
       x="-60.724186"
       y="-46.685535"
       transform="matrix(-0.9431282,0.33242924,-0.35177172,-0.93608582,0,0)"
       stroke-miterlimit="10"
       width="56.193024"
       height="6.9126363"
       id="rect5"
       style="fill:#ffffff;stroke:#ffffff;stroke-width:0.98451632;stroke-miterlimit:10" />
    <polygon
       points="68.439,17.669 65.151,18.86 65.151,25.262 68.439,24.068 "
       id="polygon7"
       transform="matrix(1.0003019,0,0,0.96877454,1.2930698,0.9773256)"
       style="fill:#039cd7" />
    <polygon
       points="60.926,20.408 57.643,21.602 57.643,27.998 60.926,26.807 "
       id="polygon9"
       transform="matrix(1.0003019,0,0,0.96877454,1.2930698,0.9773256)"
       style="fill:#039cd7" />
    <polygon
       points="53.417,23.146 50.134,24.337 50.134,30.739 53.417,29.548 "
       id="polygon11"
       transform="matrix(1.0003019,0,0,0.96877454,1.2930698,0.9773256)"
       style="fill:#039cd7" />
    <polygon
       points="45.908,25.888 42.625,27.082 42.625,33.48 45.908,32.287 "
       id="polygon13"
       transform="matrix(1.0003019,0,0,0.96877454,1.2930698,0.9773256)"
       style="fill:#039cd7" />
    <polygon
       points="38.399,28.626 35.117,29.82 35.117,36.221 38.399,35.027 "
       id="polygon15"
       transform="matrix(1.0003019,0,0,0.96877454,1.2930698,0.9773256)"
       style="fill:#039cd7" />
    <polygon
       points="30.891,31.367 27.603,32.558 27.603,38.959 30.891,37.766 "
       id="polygon17"
       transform="matrix(1.0003019,0,0,0.96877454,1.2930698,0.9773256)"
       style="fill:#039cd7" />
    <polygon
       points="23.376,34.105 20.094,35.299 20.094,41.699 23.376,40.507 "
       id="polygon19"
       transform="matrix(1.0003019,0,0,0.96877454,1.2930698,0.9773256)"
       style="fill:#039cd7" />
    <polygon
       points="68.677,44.413 72.171,44.407 74.362,50.421 70.866,50.423 "
       id="polygon21"
       transform="matrix(1.0003019,0,0,0.96877454,1.2930698,0.9773256)"
       style="fill:#039cd7" />
    <polygon
       points="20.95,44.413 24.439,44.407 26.629,50.421 23.14,50.423 "
       id="polygon23"
       transform="matrix(1.0003019,0,0,0.96877454,1.2930698,0.9773256)"
       style="fill:#039cd7" />
    <polygon
       points="28.903,44.413 32.393,44.407 34.583,50.421 31.093,50.423 "
       id="polygon25"
       transform="matrix(1.0003019,0,0,0.96877454,1.2930698,0.9773256)"
       style="fill:#039cd7" />
    <polygon
       points="36.857,44.413 40.352,44.407 42.542,50.421 39.047,50.423 "
       id="polygon27"
       transform="matrix(1.0003019,0,0,0.96877454,1.2930698,0.9773256)"
       style="fill:#039cd7" />
    <polygon
       points="44.815,44.413 48.305,44.407 50.49,50.421 47,50.423 "
       id="polygon29"
       transform="matrix(1.0003019,0,0,0.96877454,1.2930698,0.9773256)"
       style="fill:#039cd7" />
    <polygon
       points="52.77,44.413 56.259,44.407 58.449,50.421 54.959,50.423 "
       id="polygon31"
       transform="matrix(1.0003019,0,0,0.96877454,1.2930698,0.9773256)"
       style="fill:#039cd7" />
    <polygon
       points="60.723,44.413 64.218,44.407 66.402,50.421 62.913,50.423 "
       id="polygon33"
       transform="matrix(1.0003019,0,0,0.96877454,1.2930698,0.9773256)"
       style="fill:#039cd7" />
    <g
       id="g35"
       transform="matrix(1.0003019,0,0,0.96877454,1.2930698,0.9773256)">
      <line
         stroke-miterlimit="10"
         x1="23.035"
         y1="56.598"
         x2="72.101997"
         y2="56.598"
         id="line37"
         style="fill:#ffffff;stroke:#039cd7;stroke-miterlimit:10" />
      <line
         stroke-miterlimit="10"
         x1="23.035"
         y1="64.891998"
         x2="72.101997"
         y2="64.891998"
         id="line39"
         style="fill:#ffffff;stroke:#039cd7;stroke-miterlimit:10" />
      <line
         stroke-miterlimit="10"
         x1="23.035"
         y1="73.188004"
         x2="72.101997"
         y2="73.188004"
         id="line41"
         style="fill:#ffffff;stroke:#039cd7;stroke-miterlimit:10" />
    </g>
  </g>
  <g
     inkscape:groupmode="layer"
     id="layer2"
     inkscape:label="BADGE"
     style="display:none"
     sodipodi:insensitive="true">
    <g
       style="display:inline"
       transform="translate(-340.00001,-581)"
       id="g4394"
       clip-path="none">
      <g
         id="g855">
        <g
           inkscape:groupmode="maskhelper"
           id="g870"
           clip-path="url(#clipPath873)"
           style="opacity:0.6;filter:url(#filter891)">
          <path
             transform="matrix(1.4999992,0,0,1.4999992,-29.999795,-237.54282)"
             d="m 264,552.36218 a 12,12 0 0 1 -12,12 12,12 0 0 1 -12,-12 12,12 0 0 1 12,-12 12,12 0 0 1 12,12 z"
             sodipodi:ry="12"
             sodipodi:rx="12"
             sodipodi:cy="552.36218"
             sodipodi:cx="252"
             id="path844"
             style="color:#000000;fill:#000000;fill-opacity:1;fill-rule:nonzero;stroke:none;stroke-width:4;marker:none;visibility:visible;display:inline;overflow:visible;enable-background:accumulate"
             sodipodi:type="arc" />
        </g>
        <g
           id="g862">
          <path
             sodipodi:type="arc"
             style="color:#000000;fill:#f5f5f5;fill-opacity:1;fill-rule:nonzero;stroke:none;stroke-width:4;marker:none;visibility:visible;display:inline;overflow:visible;enable-background:accumulate"
             id="path4398"
             sodipodi:cx="252"
             sodipodi:cy="552.36218"
             sodipodi:rx="12"
             sodipodi:ry="12"
             d="m 264,552.36218 a 12,12 0 0 1 -12,12 12,12 0 0 1 -12,-12 12,12 0 0 1 12,-12 12,12 0 0 1 12,12 z"
             transform="matrix(1.4999992,0,0,1.4999992,-29.999795,-238.54282)" />
          <path
             transform="matrix(1.25,0,0,1.25,33,-100.45273)"
             d="m 264,552.36218 a 12,12 0 0 1 -12,12 12,12 0 0 1 -12,-12 12,12 0 0 1 12,-12 12,12 0 0 1 12,12 z"
             sodipodi:ry="12"
             sodipodi:rx="12"
             sodipodi:cy="552.36218"
             sodipodi:cx="252"
             id="path4400"
             style="color:#000000;fill:#dd4814;fill-opacity:1;fill-rule:nonzero;stroke:none;stroke-width:4;marker:none;visibility:visible;display:inline;overflow:visible;enable-background:accumulate"
             sodipodi:type="arc" />
          <path
             sodipodi:type="star"
             style="color:#000000;fill:#f5f5f5;fill-opacity:1;fill-rule:nonzero;stroke:none;stroke-width:3;marker:none;visibility:visible;display:inline;overflow:visible;enable-background:accumulate"
             id="path4459"
             sodipodi:sides="5"
             sodipodi:cx="666.19574"
             sodipodi:cy="589.50385"
             sodipodi:r1="7.2431178"
             sodipodi:r2="4.3458705"
             sodipodi:arg1="1.0471976"
             sodipodi:arg2="1.6755161"
             inkscape:flatsided="false"
             inkscape:rounded="0.1"
             inkscape:randomized="0"
             d="m 669.8173,595.77657 c -0.39132,0.22593 -3.62645,-1.90343 -4.07583,-1.95066 -0.44938,-0.0472 -4.05653,1.36297 -4.39232,1.06062 -0.3358,-0.30235 0.68963,-4.03715 0.59569,-4.47913 -0.0939,-0.44198 -2.5498,-3.43681 -2.36602,-3.8496 0.18379,-0.41279 4.05267,-0.59166 4.44398,-0.81759 0.39132,-0.22593 2.48067,-3.48704 2.93005,-3.4398 0.44938,0.0472 1.81505,3.67147 2.15084,3.97382 0.3358,0.30236 4.08294,1.2817 4.17689,1.72369 0.0939,0.44198 -2.9309,2.86076 -3.11469,3.27355 -0.18379,0.41279 0.0427,4.27917 -0.34859,4.5051 z"
             transform="matrix(1.511423,-0.16366377,0.16366377,1.511423,-755.37346,-191.93651)" />
        </g>
      </g>
    </g>
  </g>
</svg>
